<?xml version="1.0" standalone="no"?>
<!DOCTYPE svg PUBLIC "-//W3C//DTD SVG 20010904//EN"
 "http://www.w3.org/TR/2001/REC-SVG-20010904/DTD/svg10.dtd">
<svg version="1.0" xmlns="http://www.w3.org/2000/svg"
 width="260.000000pt" height="260.000000pt" viewBox="0 0 260.000000 260.000000"
 preserveAspectRatio="xMidYMid meet">
<metadata>
Created by potrace 1.11, written by Peter Selinger 2001-2013
</metadata>
<g transform="translate(0.000000,260.000000) scale(0.100000,-0.100000)"
fill="#000000" stroke="none">
<path d="M2404 2461 c-2 -3 -19 -6 -37 -8 -35 -3 -72 -10 -72 -14 0 -1 -11 -3
-25 -4 -14 -1 -33 -5 -42 -9 -9 -4 -21 -5 -26 -2 -6 3 -15 0 -21 -7 -6 -8 -26
-13 -46 -12 -19 1 -35 -1 -35 -5 0 -4 -12 -10 -27 -13 -52 -10 -83 -17 -109
-27 -14 -6 -30 -8 -35 -4 -5 3 -9 1 -9 -4 0 -5 -15 -13 -32 -17 -18 -4 -35 -9
-38 -10 -3 -1 -17 -5 -32 -9 -16 -5 -28 -13 -28 -18 0 -6 -6 -8 -14 -5 -7 3
-23 -1 -35 -9 -11 -8 -21 -12 -21 -9 0 3 -10 0 -22 -7 -13 -7 -26 -11 -30 -10
-5 1 -8 -3 -8 -9 0 -5 -4 -8 -9 -5 -4 3 -43 -12 -85 -33 -42 -22 -76 -36 -76
-33 0 4 -4 3 -8 -3 -4 -5 -24 -19 -44 -29 -21 -11 -38 -23 -38 -27 0 -5 -7 -6
-15 -3 -8 4 -15 1 -15 -5 0 -6 -7 -11 -15 -11 -8 0 -15 -4 -15 -9 0 -5 -13
-14 -30 -21 -16 -7 -30 -17 -30 -23 0 -6 -3 -8 -6 -4 -3 3 -15 -3 -27 -13 -11
-11 -25 -17 -30 -13 -6 3 -7 1 -3 -5 3 -6 -3 -13 -14 -17 -11 -3 -29 -18 -40
-32 -11 -14 -20 -22 -20 -17 0 5 -7 0 -15 -10 -8 -11 -15 -17 -15 -14 0 8 -91
-82 -142 -139 -20 -23 -39 -38 -43 -35 -4 4 -5 2 -3 -3 1 -6 -4 -20 -12 -32
-15 -20 -23 -21 -204 -23 l-189 -1 -56 -57 c-31 -31 -54 -61 -53 -67 2 -5 1
-7 -3 -3 -9 9 -174 -154 -168 -165 2 -4 1 -6 -4 -5 -5 2 -59 -47 -121 -109
l-112 -111 195 -2 194 -1 76 -74 c42 -41 72 -75 68 -75 -4 0 -1 -4 7 -10 12
-8 12 -10 -3 -16 -9 -3 -15 -9 -13 -13 3 -4 -5 -8 -17 -8 -12 -1 -27 -10 -34
-19 -7 -10 -13 -14 -13 -9 0 5 -7 -1 -16 -13 -8 -12 -22 -22 -30 -22 -8 0 -17
-7 -21 -15 -8 -24 -67 -80 -78 -76 -5 1 -7 -1 -3 -4 7 -8 -18 -65 -28 -65 -3
0 -2 5 2 12 4 7 3 8 -5 4 -6 -4 -9 -12 -5 -17 3 -6 -2 -17 -12 -25 -18 -15
-18 -15 1 -10 18 5 18 4 -2 -10 -13 -9 -23 -25 -23 -35 0 -11 -5 -19 -12 -19
-6 0 -8 -3 -5 -7 4 -3 1 -13 -6 -21 -10 -13 -9 -14 1 -8 7 4 3 -9 -8 -29 -11
-20 -18 -47 -16 -61 3 -13 1 -22 -3 -20 -4 3 -13 1 -21 -5 -10 -5 -10 -9 -3
-9 7 0 10 -9 6 -23 -3 -12 -6 -39 -7 -59 0 -21 -5 -38 -11 -38 -5 0 -10 -17
-9 -38 0 -44 -5 -64 -16 -57 -5 3 -5 -9 0 -26 8 -27 7 -30 -8 -25 -15 5 -15 4
-2 -6 10 -9 14 -26 12 -50 -3 -36 -2 -38 25 -38 16 0 35 -6 42 -12 10 -9 12
-9 7 -1 -3 6 -2 14 4 18 5 3 10 0 10 -7 0 -10 2 -10 9 1 5 7 14 10 20 6 7 -4
17 -3 24 2 7 5 33 9 59 8 27 0 48 3 48 6 0 6 17 9 53 10 9 0 17 4 17 9 0 4 8
7 18 5 9 -1 24 4 34 12 11 10 18 11 23 3 5 -8 12 -5 22 7 8 10 11 11 7 3 -6
-12 -4 -13 7 -2 7 6 23 12 35 12 12 0 29 10 38 22 13 18 16 19 12 5 -5 -17 -3
-16 23 2 16 12 34 21 41 21 6 0 8 4 5 10 -3 6 1 7 9 4 9 -3 16 -1 16 4 0 6 9
14 21 17 22 7 47 25 86 62 13 13 27 24 30 25 10 4 53 48 48 48 -3 0 3 8 13 18
9 11 20 17 24 15 3 -1 4 6 1 17 -3 12 -2 20 3 19 21 -4 28 2 14 11 -10 6 -11
10 -2 10 6 0 12 7 12 15 0 8 3 15 8 15 14 -1 42 -27 35 -33 -3 -4 -2 -7 4 -7
6 0 38 -26 72 -58 l61 -58 0 -192 c0 -187 7 -226 30 -169 5 12 9 18 9 14 1 -5
109 100 241 232 l240 240 0 190 c0 137 3 191 11 191 7 0 28 15 47 33 77 72
178 176 202 207 14 18 31 39 38 46 6 7 12 17 12 22 0 4 11 19 25 32 14 13 23
25 21 28 -3 2 3 13 13 24 10 10 27 36 37 56 11 20 21 39 24 42 3 3 14 23 25
45 11 22 24 43 28 46 5 3 8 9 8 13 -3 19 0 27 8 21 6 -3 8 4 6 15 -2 11 0 20
4 20 9 0 47 90 43 103 -1 4 3 7 8 7 6 0 10 9 10 21 0 11 4 18 9 15 5 -4 8 2 7
11 -2 10 1 20 5 23 5 3 10 15 12 25 2 11 7 28 11 37 4 9 9 25 11 35 2 10 4 20
5 23 1 3 2 8 1 13 0 4 3 7 9 7 6 0 10 14 10 30 0 17 5 30 11 30 6 0 9 6 6 13
-2 6 2 27 10 45 7 17 10 32 6 32 -4 0 -2 5 5 12 7 7 12 25 12 40 0 15 4 28 9
28 4 0 7 11 6 25 -2 14 0 25 4 25 4 0 8 13 9 30 1 16 6 40 11 52 4 13 7 33 6
46 -1 12 1 22 5 22 7 0 8 4 13 60 1 19 5 40 8 45 3 6 6 22 7 36 1 24 -2 27
-29 25 -17 0 -33 -3 -35 -5z"/>
<path d="M90 201 c0 -6 4 -13 10 -16 6 -3 7 1 4 9 -7 18 -14 21 -14 7z"/>
</g>
</svg>
