<?xml version="1.0" standalone="no"?>
<!DOCTYPE svg PUBLIC "-//W3C//DTD SVG 20010904//EN"
 "http://www.w3.org/TR/2001/REC-SVG-20010904/DTD/svg10.dtd">
<svg version="1.0" xmlns="http://www.w3.org/2000/svg"
 width="640.000000pt" height="640.000000pt" viewBox="0 0 640.000000 640.000000"
 preserveAspectRatio="xMidYMid meet">
<metadata>
Created by potrace 1.11, written by Peter Selinger 2001-2013
</metadata>
<g transform="translate(0.000000,640.000000) scale(0.100000,-0.100000)"
fill="#000000" stroke="none">
<path d="M6193 6370 c-1417 -246 -2499 -707 -3323 -1416 -142 -123 -337 -317
-453 -451 -105 -121 -42 -108 -557 -123 -201 -6 -398 -13 -439 -16 l-74 -6
-662 -646 -662 -647 196 -6 c108 -4 336 -7 507 -8 l311 -1 215 -237 c162 -178
214 -242 211 -257 -3 -15 -35 -37 -107 -74 -332 -172 -604 -480 -778 -881 -54
-126 -60 -163 -8 -49 111 242 333 506 540 643 112 74 151 95 244 130 l68 26
-6 -118 c-4 -65 -9 -139 -12 -165 -3 -27 -2 -48 3 -48 5 0 24 12 42 28 l33 27
3 130 c3 188 35 352 149 770 30 110 127 354 194 490 27 55 52 110 56 122 12
36 103 200 172 307 36 55 79 124 97 153 38 62 214 291 294 383 182 209 641
633 763 704 19 11 69 44 110 74 157 110 217 151 267 178 29 16 115 67 193 112
78 46 176 99 218 119 43 19 100 45 127 58 304 144 460 204 904 351 152 51 357
109 416 119 22 4 94 20 160 35 280 66 327 74 452 74 120 1 122 1 151 -27 77
-73 69 -219 -38 -707 -70 -316 -133 -534 -235 -800 -20 -52 -42 -115 -50 -140
-24 -84 -64 -177 -175 -405 -37 -77 -84 -174 -104 -215 -20 -41 -72 -133 -115
-205 -44 -71 -93 -155 -110 -185 -32 -60 -82 -132 -179 -261 -34 -46 -77 -105
-95 -131 -135 -195 -642 -704 -827 -827 -36 -24 -94 -67 -130 -96 -58 -47
-157 -113 -232 -155 -15 -8 -103 -59 -197 -113 -93 -54 -193 -107 -223 -119
-29 -11 -80 -33 -113 -49 -169 -80 -504 -198 -622 -219 -34 -6 -83 -17 -110
-25 -85 -25 -307 -62 -345 -57 -48 5 -50 29 -7 98 17 27 260 278 551 571 l521
521 -5 311 c-3 172 -9 315 -13 319 -7 6 -542 -530 -1806 -1810 l-501 -508 158
0 c88 0 236 -3 329 -7 l171 -6 151 179 152 180 173 26 c95 15 175 25 177 22
11 -10 -23 -124 -55 -188 -96 -188 -249 -347 -469 -488 -84 -53 -217 -125
-265 -144 -74 -27 -154 -64 -143 -64 19 0 250 84 351 128 109 48 269 141 367
215 198 147 369 383 400 550 5 26 11 35 20 29 7 -4 119 -104 249 -222 l236
-215 1 -450 c1 -247 4 -474 7 -504 l7 -54 565 579 c310 318 601 617 647 664
l82 85 11 290 c6 160 13 385 17 502 l6 212 96 78 c213 173 529 510 725 770
604 805 1026 1917 1151 3035 18 162 18 178 3 177 -7 0 -86 -14 -175 -29z"/>
<path d="M4212 5030 c-297 -80 -502 -346 -502 -650 0 -310 207 -576 510 -657
86 -22 243 -22 330 1 123 33 207 83 305 181 142 141 199 276 199 475 1 289
-170 530 -448 632 -109 41 -282 49 -394 18z m310 -304 c57 -17 157 -84 197
-132 l30 -37 -22 -31 c-41 -58 -492 -506 -509 -506 -30 0 -112 80 -152 149
-34 58 -40 75 -44 146 -3 65 0 91 18 140 11 33 24 70 27 82 3 13 23 43 45 68
97 111 273 163 410 121z"/>
<path d="M340 403 l0 -53 33 1 c17 1 43 5 57 9 21 7 22 8 5 9 -25 2 -53 23
-77 58 l-18 28 0 -52z"/>
</g>
</svg>
